<?xml version="1.0" encoding="UTF-8" standalone="no"?>
<!-- Created with Inkscape (http://www.inkscape.org/) -->

<svg
   xmlns:dc="http://purl.org/dc/elements/1.1/"
   xmlns:cc="http://creativecommons.org/ns#"
   xmlns:rdf="http://www.w3.org/1999/02/22-rdf-syntax-ns#"
   xmlns:svg="http://www.w3.org/2000/svg"
   xmlns="http://www.w3.org/2000/svg"
   xmlns:sodipodi="http://sodipodi.sourceforge.net/DTD/sodipodi-0.dtd"
   xmlns:inkscape="http://www.inkscape.org/namespaces/inkscape"
   width="209.96736"
   height="201.40199"
   id="svg2"
   version="1.1"
   inkscape:version="0.48.4 r9939"
   sodipodi:docname="logo.svg">
  <defs
     id="defs4">
    <style
       id="style6"
       type="text/css">
    .fil1 {fill:#37B1A5}
    .fil0 {fill:#B6DDC7}
    .fil2 {fill:#F4F4EB}
    .fil4 {fill:#446785}
    .fil3 {fill:#D6AD43}
    .fil5 {fill:#446785;fill-rule:nonzero}
   </style>
  </defs>
  <sodipodi:namedview
     id="base"
     pagecolor="#ffffff"
     bordercolor="#666666"
     borderopacity="1.0"
     inkscape:pageopacity="0.0"
     inkscape:pageshadow="2"
     inkscape:zoom="1.88"
     inkscape:cx="168.49525"
     inkscape:cy="101.43753"
     inkscape:document-units="px"
     inkscape:current-layer="layer1"
     showgrid="false"
     inkscape:window-width="1313"
     inkscape:window-height="744"
     inkscape:window-x="53"
     inkscape:window-y="24"
     inkscape:window-maximized="1"
     fit-margin-top="0"
     fit-margin-left="0"
     fit-margin-right="0"
     fit-margin-bottom="0" />
  <metadata
     id="metadata7">
    <rdf:RDF>
      <cc:Work
         rdf:about="">
        <dc:format>image/svg+xml</dc:format>
        <dc:type
           rdf:resource="http://purl.org/dc/dcmitype/StillImage" />
        <dc:title></dc:title>
      </cc:Work>
    </rdf:RDF>
  </metadata>
  <g
     inkscape:label="Layer 1"
     inkscape:groupmode="layer"
     id="layer1"
     transform="translate(-266.08577,-292.44655)">
    <path
       style="fill:#f1cd01;fill-opacity:1;stroke:#d8bb0e;stroke-width:3;stroke-linecap:butt;stroke-linejoin:miter;stroke-miterlimit:4;stroke-opacity:1;stroke-dasharray:none"
       d="m 467.64779,406.19624 c 0,0 -37.47297,24.40757 -43.76878,24.55333 -10.06447,0.23302 -23.6193,0.0676 -26.10392,-2.3654 -6.56025,-6.42406 -15.44323,-14.87723 -16.88657,-15.00255 -5.27882,-0.45836 -13.98188,-0.69538 -14.56135,2.63989 -1.06012,6.10176 -4.86554,10.4806 -7.76171,11.81539 -5.73216,2.64185 -42.13644,4.32823 -45.27818,1.49492 -11.89,-10.72273 -26.26591,-28.43609 -26.06723,-31.42123 0.55282,-8.3057 0.7058,-25.96432 3.98365,-33.04841 7.71796,-16.68006 22.23932,-30.49851 37.5,-40.74073 10.81904,-7.26121 22.86262,-10.91451 35.64815,-13.42593 2.42757,-0.47684 7.40741,-0.46297 7.40741,-0.46297 0,0 -8.79834,1.02443 -12.03704,-1.38889 -0.94241,-0.70224 -1.9289,-2.19687 -1.38889,-3.24074 2.03046,-3.92498 8.56626,-3.22184 12.96297,-2.77777 2.68146,0.27083 7.4074,3.24074 7.4074,3.24074 0.32085,-0.24064 -13.03353,-5.12735 -18.98148,-8.7963 -0.94713,-0.58423 0.80801,-2.39208 1.85185,-2.77778 5.86571,-2.1674 12.27862,2.66403 18.05556,5.09259 6.83003,2.87127 18.51852,11.11112 18.51852,11.11112 0,0 24.35422,8.6149 34.72222,16.2037 9.17288,6.71404 17.24388,15.28611 23.14815,25 6.52014,10.72714 11.44492,23.25221 13.42593,35.64815 1.02399,6.40752 -0.46297,18.05555 -0.46297,18.05555"
       id="path3823"
       inkscape:connector-curvature="0"
       sodipodi:nodetypes="csssssssssscssscssscsssc" />
    <path
       style="fill:#ed921d;fill-opacity:1;stroke:#c0781e;stroke-width:3;stroke-linecap:butt;stroke-linejoin:miter;stroke-miterlimit:4;stroke-opacity:1;stroke-dasharray:none"
       d="m 285.18519,401.43626 c -14.11285,7.46985 -14.83856,13.55159 -14.81482,19.9074 0.0742,19.85989 4.37557,20.97917 8.7963,26.38889 8.77834,10.74222 18.51231,22.1901 29.62963,28.24074 21.81109,11.87075 30.8009,12.91221 45.83333,14.81482 20.24364,2.56218 27.73183,1.65532 35.64815,-0.46296 16.69765,-4.46802 28.98365,-12.22425 37.96297,-16.66667 15.07488,-7.45813 25.01611,-16.31541 35.18518,-25 6.21809,-5.31037 11.45582,-14.55681 11.11111,-18.98148 -0.64523,-10.54211 -6.28497,-33.58907 -12.96297,-28.24074 -6.59901,4.70216 -19.25571,16.23713 -31.01852,20.83333 -11.96137,4.67378 -20.28379,8.40184 -32.4074,4.16666 -7.52656,-2.62928 -9.12115,-11.77749 -16.66667,-14.35185 -3.37193,-1.15042 -8.5087,-0.42684 -11.57407,1.38889 -4.30857,2.55213 -6.01051,9.27132 -10.18519,12.03704 -7.5947,5.03147 -17.754,5.56623 -26.85185,5.09259 -9.65388,-0.50259 -19.5354,-3.28228 -27.77778,-8.33333 -8.18969,-5.01877 -19.9074,-20.83333 -19.9074,-20.83333"
       id="path3819"
       inkscape:connector-curvature="0"
       sodipodi:nodetypes="csssssssccsssssssc" />
    <path
       style="fill:#ed921d;fill-opacity:1;stroke:#c0781e;stroke-width:3;stroke-linecap:butt;stroke-linejoin:miter;stroke-miterlimit:4;stroke-opacity:1;stroke-dasharray:none"
       d="m 288.32071,439.10461 c 0,0 1.71388,-0.60079 -2.2096,5.3872 -2.95898,4.51597 -10.17946,4.41037 -13.88889,8.33334 -2.27649,2.40754 -4.78435,5.48649 -4.62963,8.79629 0.19787,4.23289 2.71919,10.97017 6.94445,10.64815 23.92989,-1.82379 39.75921,-4.22416 59.72222,-4.62963 20.9975,-0.42648 42.11312,-0.20734 62.96296,2.31482 18.14806,2.19534 34.96384,5.20031 53.70371,11.11111 4.47611,1.41182 9.87833,0.12327 13.88888,-2.31482 2.63733,-1.60328 6.1429,-4.37739 5.55556,-7.40741 -3.08142,-15.89669 -13.91026,-19.27254 -14.81481,-30.55555 -0.51501,-6.42402 0.15782,-3.17761 0.15782,-3.17761"
       id="path3821"
       inkscape:connector-curvature="0"
       sodipodi:nodetypes="cssssssssssc" />
    <path
       style="fill:#cecece;fill-opacity:1;stroke:none"
       d="m 372.44318,381.33946 c 0.6595,3.1868 1.57209,6.4083 1.42046,9.65909 -0.1862,3.99205 -1.26759,7.97406 -2.84091,11.64772 -1.72703,4.03258 -3.91799,8.06216 -7.10228,11.07955 -2.9244,2.77112 -6.67333,4.74088 -10.51136,5.96591 -4.44339,1.41825 -9.29839,2.04637 -13.92045,1.42045 -5.43708,-0.73629 -9.73813,-2.49512 -14.20455,-5.68182 -3.93826,-2.80986 -6.90464,-7.04791 -9.09091,-11.36363 -2.20047,-4.34374 -3.11129,-8.77618 -3.40909,-13.63637 -0.25647,-4.18563 0.0838,-9.48467 1.70455,-13.35227 1.97779,-4.71948 4.11906,-8.26036 7.95454,-11.64773 3.76187,-3.32236 8.08509,-6.19126 12.78409,-7.95454 3.86258,-1.44942 8.11427,-2.43238 12.21591,-1.98864 4.86024,0.52581 13.63637,5.39773 13.63637,5.39773 2.12964,0.84298 6.2864,5.29281 8.23863,8.80682 1.95223,3.51401 2.31036,7.71126 3.125,11.64773 z"
       id="path3835"
       inkscape:connector-curvature="0"
       sodipodi:nodetypes="ssssssssssssssss" />
    <path
       style="fill:#000000;fill-opacity:1;stroke:none"
       d="m 328.125,373.10082 c -1.89942,3.70128 -2.99677,8.07903 -2.55682,12.21591 0.39452,3.70971 1.24612,7.75586 3.4091,10.79545 2.33069,3.27526 6.27019,6.03686 9.94317,7.67046 4.08138,1.81524 8.94565,1.86738 13.35228,1.13636 4.1831,-0.69394 8.42037,-2.36335 11.64772,-5.11364 2.65899,-2.26595 4.59366,-5.48707 5.68182,-8.80681 0.97516,-2.97499 1.07411,-6.28542 0.56818,-9.375 -0.61098,-3.73108 -2.20788,-7.33687 -4.26136,-10.51137 -1.637,-2.53067 -3.66724,-4.98056 -6.25,-6.53409 -3.87902,-2.33323 -8.54437,-3.8541 -13.06818,-3.69318 -3.62226,0.12885 -7.16789,1.74957 -10.22727,3.69318 -2.03471,1.29264 -3.44652,3.37247 -5.11364,5.11364 -1.06611,1.11347 -2.42117,2.03759 -3.125,3.40909 z"
       id="path3837"
       inkscape:connector-curvature="0"
       sodipodi:nodetypes="ssssssssssssss" />
    <path
       style="fill:#cecece;fill-opacity:1;stroke:none"
       d="m 434.375,365.99855 c 2.90711,3.96097 4.66146,6.62665 5.96591,11.36363 1.33463,4.84657 1.75407,10.73992 0.56818,15.62501 -1.01147,4.16657 -3.96813,10.14904 -6.81818,13.35226 -4.26788,4.79675 -7.95798,8.12968 -13.92046,10.51137 -4.77802,1.90856 -10.25227,2.46476 -15.3409,1.70454 -5.202,-0.77716 -10.63368,-2.67172 -14.48864,-6.25 -3.44588,-3.19857 -4.96826,-8.06682 -6.53409,-12.5 -2.09058,-5.91884 -4.48315,-12.23861 -3.69318,-18.4659 0.76754,-6.05047 4.30557,-11.59033 7.95454,-16.47728 2.52678,-3.38404 5.54645,-6.73986 9.375,-8.52272 4.50423,-2.09751 9.80517,-2.09329 14.77273,-1.98864 4.32722,0.0912 8.94635,0.2715 12.78409,2.27273 3.91863,2.04342 6.76011,5.81219 9.375,9.375 z"
       id="path3841"
       inkscape:connector-curvature="0"
       sodipodi:nodetypes="ssssssssssssss" />
    <path
       style="fill:#000000;fill-opacity:1;stroke:none"
       d="m 392.04545,397.81673 c 4.02308,2.28284 8.16546,5.14342 12.7841,5.39773 4.63699,0.25532 9.51354,-1.36365 13.35227,-3.97728 3.67981,-2.50543 6.57296,-6.38295 8.23863,-10.51136 1.38909,-3.44289 1.9134,-7.44922 1.13637,-11.07955 -1.03006,-4.81251 -3.78733,-9.42728 -7.38637,-12.78409 -3.31392,-3.09088 -7.7285,-5.33438 -12.2159,-5.96591 -4.85631,-0.68345 -10.05895,0.45236 -14.48864,2.55682 -2.48641,1.18125 -4.4836,3.28648 -6.25,5.39773 -1.90712,2.27945 -3.75995,4.8041 -4.54546,7.67045 -1.00114,3.65319 -0.98489,7.70604 0,11.36364 0.88263,3.27784 2.84469,6.28192 5.11364,8.80682 1.17736,1.31018 2.72935,2.25568 4.26136,3.125 z"
       id="path3839"
       inkscape:connector-curvature="0"
       sodipodi:nodetypes="sssssssssssss" />
    <path
       style="fill:#ed921d;fill-opacity:1;stroke:none"
       d="m 286.43617,402.89409 -1.8617,5.31916 22.07446,23.13829 28.72341,10.37234 51.06383,-0.26595 52.12766,-1.59575 26.32978,-28.45744 c -5.72755,-14.01388 -5.5231,-8.15723 -16.48935,-1.06384 -8.56244,5.53456 -17.36295,10.92359 -26.86171,14.62766 -3.74602,1.46077 -7.68271,2.82147 -11.70212,2.92553 -4.15395,0.10755 -8.55301,-0.46571 -12.23405,-2.39361 -4.05419,-2.12332 -6.32824,-6.64028 -9.84042,-9.57447 -2.34102,-1.95576 -4.49236,-4.55981 -7.44681,-5.31915 -2.93944,-0.75548 -6.31138,-0.2597 -9.04255,1.06383 -2.48213,1.20284 -3.99457,3.81117 -5.85107,5.85106 -2.24618,2.46805 -3.69047,5.74123 -6.38298,7.71277 -3.24091,2.3731 -7.23325,3.72419 -11.17021,4.52128 -5.82225,1.1788 -11.92605,1.0139 -17.81915,0.26595 -6.65672,-0.84486 -13.43927,-2.26665 -19.41489,-5.31914 -5.16615,-2.63899 -9.37716,-6.88864 -13.56383,-10.90426 -4.08071,-3.91398 -10.6383,-10.90426 -10.6383,-10.90426 z"
       id="path3878"
       inkscape:connector-curvature="0"
       sodipodi:nodetypes="ccccccccssssssssssssc" />
    <path
       style="fill:#c0781e;fill-opacity:1;stroke:#c0781e;stroke-width:2.54205036;stroke-linecap:butt;stroke-linejoin:miter;stroke-miterlimit:4;stroke-opacity:1;stroke-dasharray:none"
       d="m 381.28912,421.1593 c 0,0 0.48975,7.03335 2.88869,9.14753 1.3461,1.18631 3.56403,1.43176 5.29594,0.96289 0.71408,-0.19332 1.46589,-0.73776 1.68507,-1.44434 0.36906,-1.18975 -0.20153,-2.62494 -0.9629,-3.61087 -2.08654,-2.70192 -8.9068,-5.05521 -8.9068,-5.05521 z"
       id="path3861"
       inkscape:connector-curvature="0"
       sodipodi:nodetypes="cssssc" />
    <path
       style="fill:#c0781e;fill-opacity:1;stroke:#c0781e;stroke-width:2.67302132;stroke-linecap:butt;stroke-linejoin:miter;stroke-miterlimit:4;stroke-opacity:1;stroke-dasharray:none"
       d="m 375.07164,420.94069 c 0,0 0.15036,7.90887 -2.53126,10.12508 -1.17251,0.96901 -3.10437,0.70667 -4.55629,0.25313 -0.91827,-0.28684 -1.85547,-0.90769 -2.27813,-1.77189 -0.33364,-0.68217 -0.35625,-1.60751 0,-2.27815 1.7675,-3.32741 9.36568,-6.32817 9.36568,-6.32817 z"
       id="path3863"
       inkscape:connector-curvature="0"
       sodipodi:nodetypes="cssssc" />
    <path
       style="fill:#d8bb0e;fill-opacity:1;stroke:#d9c212;stroke-width:2.8538878;stroke-linecap:butt;stroke-linejoin:miter;stroke-miterlimit:4;stroke-opacity:1;stroke-dasharray:none"
       d="m 321.65392,347.83178 c 5.45818,-0.32017 10.6964,-1.59229 16.15457,-1.91246 6.38732,-0.37467 19.24798,0 19.24798,0 l 1.03115,-4.2499 c 0,0 -14.30916,-0.33106 -21.31027,0.425 -4.39004,0.47408 -8.84622,1.18502 -12.71742,2.54993 -2.25637,0.79556 -5.84315,3.18743 -5.84315,3.18743 0,0 2.29655,0.0669 3.43714,0 z"
       id="path3865"
       inkscape:connector-curvature="0"
       sodipodi:nodetypes="ssccsscs" />
    <path
       style="fill:#d9c212;fill-opacity:1;stroke:#d9c212;stroke-width:2.42354107;stroke-linecap:butt;stroke-linejoin:miter;stroke-miterlimit:4;stroke-opacity:1;stroke-dasharray:none"
       d="m 391.34112,339.87951 0.85773,3.84098 c 0,0 16.10076,-2.73623 22.96642,-1.90718 4.22845,0.51059 13.74647,3.37384 14.29722,3.18479 0.53096,-0.18223 0.26035,-1.35835 0.0757,-1.84585 -0.54319,-1.43416 -8.33838,-3.78262 -12.68727,-4.83854 -7.3686,-1.78914 -25.50981,1.5658 -25.50981,1.5658 z"
       id="path3867"
       inkscape:connector-curvature="0"
       sodipodi:nodetypes="ccssssc" />
    <path
       style="fill:#ebebeb;fill-opacity:1;stroke:none"
       d="m 328.40909,389.294 c 1.89686,-0.98306 4.17609,-1.93363 6.25,-1.42045 1.695,0.41942 3.02501,1.94548 3.97727,3.40909 1.07835,1.65741 1.98326,3.72423 1.70455,5.68182 -0.27027,1.89832 -1.66757,3.58352 -3.125,4.82954 -1.41779,1.21213 -2.97095,1.57862 -4.82955,1.42046 -1.36082,-0.1158 -2.70609,-0.47658 -3.69318,-1.42046 -1.2731,-1.21737 -2.57697,-2.58732 -3.125,-4.26136 -0.58925,-1.79994 -0.77053,-3.95171 0,-5.68182 0.51832,-1.16382 1.70977,-1.9706 2.84091,-2.55682 z"
       id="path3869"
       inkscape:connector-curvature="0"
       sodipodi:nodetypes="ssssssssss" />
    <path
       style="fill:#ebebeb;fill-opacity:1;stroke:none"
       d="m 413.63636,389.00991 c -0.40532,1.88844 0.225,3.97891 1.13637,5.68182 1.01107,1.8892 2.51031,3.87497 4.54545,4.54545 1.81896,0.59926 4.01858,0.0971 5.68182,-0.85227 1.69545,-0.96779 3.13246,-2.67548 3.69318,-4.54545 0.54669,-1.82319 0.0195,-3.87142 -0.56818,-5.68182 -0.40617,-1.2513 -0.96754,-2.57958 -1.98864,-3.40909 -1.39457,-1.1329 -3.31873,-1.78597 -5.11363,-1.70455 -1.65211,0.0749 -3.26104,0.94683 -4.54546,1.98864 -1.26533,1.02632 -2.49901,2.38432 -2.84091,3.97727 z"
       id="path3871"
       inkscape:connector-curvature="0"
       sodipodi:nodetypes="ssssssssss" />
    <path
       style="fill:#f6f6f6;fill-opacity:1;stroke:none"
       d="m 434.65909,359.74855 c 0,0 6.73143,1.42784 9.65909,3.125 2.43585,1.41206 4.66982,3.35151 6.25,5.68181 1.81636,2.6786 2.74351,5.92372 3.40909,9.09091 0.70218,3.34137 0.68571,6.81495 0.56818,10.22728 -0.0526,1.52604 -0.56818,4.54545 -0.56818,4.54545 0,0 3.63392,-5.87457 4.82955,-9.09091 1.48885,-4.00514 2.23993,-8.26955 2.84091,-12.5 0.22681,-1.5966 0.28409,-4.82954 0.28409,-4.82954 0,0 -3.74093,-1.64513 -5.68182,-2.27273 -2.22904,-0.72077 -4.52165,-1.24186 -6.81818,-1.70455 -4.88404,-0.98401 -14.77273,-2.27272 -14.77273,-2.27272 z"
       id="path3873"
       inkscape:connector-curvature="0"
       sodipodi:nodetypes="csssscsscssc" />
    <path
       style="fill:#f6f6f6;fill-opacity:1;stroke:none"
       d="m 287.78409,370.25991 c 0,0 1.39252,5.85693 1.98864,8.80682 0.53351,2.64009 1.53197,6.21721 2.27272,8.80681 0.98173,3.43206 3.125,9.09092 3.125,9.09092 l 1.13637,1.98863 c 0,0 0.0364,-3.78823 0,-5.68182 -0.0474,-2.46349 -0.3537,-4.9234 -0.28409,-7.38636 0.0564,-1.99684 0.069,-4.03164 0.56818,-5.96591 0.59342,-2.29966 1.41669,-4.63352 2.84091,-6.53409 0.88704,-1.18373 2.73931,-3.16762 3.97727,-3.97727 7.43024,-4.94417 3.05936,-1.2189 9.94318,-5.39773 0,0 -3.42364,0.0425 -5.11363,0.28409 -4.13856,0.59165 -8.2165,1.62335 -12.21591,2.84091 -2.80981,0.8554 -8.23864,3.125 -8.23864,3.125 z"
       id="path3875"
       inkscape:connector-curvature="0"
       sodipodi:nodetypes="cssccssssccssc" />
    <path
       style="fill:none;stroke:#c0781e;stroke-width:3;stroke-linecap:butt;stroke-linejoin:miter;stroke-miterlimit:4;stroke-opacity:1;stroke-dasharray:none"
       d="m 288.35227,440.99855 c 1.05449,-5.4796 1.71382,-10.5021 0.56819,-18.18182"
       id="path3895"
       inkscape:connector-curvature="0"
       sodipodi:nodetypes="cc" />
    <path
       style="fill:none;stroke:#c0781e;stroke-width:3;stroke-linecap:butt;stroke-linejoin:miter;stroke-miterlimit:4;stroke-opacity:1;stroke-dasharray:none"
       d="m 455.39773,438.44172 c 0.33677,-5.96591 1.76212,-9.94317 5.11363,-15.90908"
       id="path3897"
       inkscape:connector-curvature="0"
       sodipodi:nodetypes="cc" />
    <path
       style="fill:#030000;fill-opacity:1;stroke:none"
       d="m 322.28661,428.41031 c -17.6827,-3.16936 -26.58167,-9.35877 -36.07609,-28.05289 -3.69998,-7.28511 -4.68836,-14.91782 -6.94491,-28.35794 -0.68032,-4.05201 -0.87248,-9.25064 -0.7997,-9.31648 0.88172,-0.79761 16.29674,-5.18002 21.47293,-6.77625 7.82782,-2.41394 19.54642,-3.43405 36.09909,-3.14246 12.44896,0.21931 14.872,0.45207 27.97008,2.68683 3.93701,1.27061 13.02051,0.39013 16.94094,-0.39856 3.40325,-0.68465 9.55694,-2.32254 11.2363,-2.55249 13.84752,-1.89609 16.05329,-3.70125 31.55394,-3.85195 16.2299,-0.15779 25.98337,2.22178 33.13877,3.9518 3.23608,0.78241 14.1262,3.72158 15.58243,6.28962 l 0.918,1.61888 -1.81617,8.82653 c -4.25158,20.66261 -7.66028,28.86422 -16.06507,38.65392 -7.95096,9.26107 -14.66795,13.37762 -25.65449,15.72248 -10.44704,2.22972 -17.73871,1.16459 -28.64722,-4.18463 -4.32959,-2.12311 -8.61219,-4.97718 -11.34216,-7.5588 -3.40217,-3.21731 -6.53541,-9.41533 -8.10201,-16.02705 -2.0619,-8.70202 -2.49151,-12.56802 -2.70625,-24.35269 l -0.20762,-11.39447 -1.45756,0.24106 c -0.80167,0.13259 -2.64964,0.24306 -4.10663,0.2455 l -2.64906,0.004 -0.25352,10.9481 c -0.37558,16.21885 0.45835,19.13512 -3.04032,29.60988 -4.30279,12.88228 -9.21034,19.91381 -16.83409,23.72961 -5.49195,2.74881 -9.91367,3.68422 -18.16548,3.8429 -4.69459,0.0903 -8.03216,-0.0443 -10.04413,-0.40487 l 0,0 z m 18.26831,-5.83538 c 17.24733,-6.72808 23.311,-20.73332 24.36358,-35.7755 0.46657,-6.9777 -0.22258,-21.06488 -0.62392,-23.95496 l -0.28589,-2.05874 -6.49793,-0.86495 c -10.43966,-1.38963 -13.57782,-1.64203 -23.79756,-1.91406 -10.428,-0.27757 -16.79931,0.12541 -24.28307,1.53588 -4.2783,0.80634 -14.91854,3.3745 -19.6865,4.7516 -1.43631,0.41484 -3.37985,0.95454 -4.31898,1.19933 -2.09582,0.5463 -2.07535,0.18885 -0.53415,9.32686 2.95575,17.52508 6.86057,24.64439 12.87553,32.62494 7.80612,10.35704 16.01144,13.64001 25.12323,15.74324 3.71015,0.8564 13.55809,0.51432 17.66566,-0.61364 z m 87.85547,-3.78879 c 13.54725,-3.43654 22.79791,-10.4355 29.79846,-22.54523 3.37601,-5.83992 5.31097,-12.4975 7.57214,-26.05334 1.01661,-6.0947 1.16082,-7.63533 0.73908,-7.89598 -0.672,-0.41532 -11.9548,-3.36554 -18.47735,-4.83144 -13.82142,-3.10629 -30.42797,-3.92503 -44.59953,-2.19886 -8.37349,1.01993 -16.25723,2.31015 -16.51488,2.70275 -0.59008,0.89916 -1.3619,12.0456 -1.3429,19.3939 0.0413,15.95784 2.19909,26.64026 9.34695,32.47797 3.71253,3.03205 8.43696,5.58602 16.73759,8.73564 3.21992,1.22178 12.5812,1.2697 16.74044,0.21459 z"
       id="path3914"
       inkscape:connector-curvature="0"
       sodipodi:nodetypes="csscssccsssscssssssscsccsssscccccscssssssssccsssssssssc" />
    <g
       id="g3956"
       transform="translate(-0.60982573,2.33229e-7)" />
  </g>
  <g
     inkscape:groupmode="layer"
     id="layer3"
     inkscape:label="delnai"
     transform="translate(-266.08577,-292.44655)" />
  <g
     inkscape:groupmode="layer"
     id="layer2"
     inkscape:label="pylab"
     style="display:inline"
     transform="translate(-266.08577,-292.44655)" />
</svg>
